# AST/ASF file generated using VICON BodyLanguage
# -----------------------------------------------
:version 1.10
:name VICON
:units
  mass 1.0
  length 0.45
  angle deg
:documentation
   .ast/.asf automatically generated from VICON data using
   VICON BodyBuilder and BodyLanguage model FoxedUp or BRILLIANT.MOD
:root
   order TX TY TZ RX RY RZ
   axis XYZ
   position 0 0 0  
   orientation 0 -0 0 
:bonedata
  begin
     id 1 
     name lhipjoint
     direction 0.432694 -0.693742 0.575759 
     length 2.19277 
     axis 0 -0 0  XYZ
  end
  begin
     id 2 
     name lfemur
     direction 0.34202 -0.939693 0  
     length 6.69022  
     axis 0 -0 20  XYZ
    dof rx ry rz
    limits (-160.0 20.0)
           (-70.0 70.0)
           (-60.0 70.0)
  end
  begin
     id 3 
     name ltibia
     direction 0.34202 -0.939693 0   
     length 6.50337   
     axis 0 -0 20   XYZ
    dof rx
    limits (-10.0 170.0)
  end
  begin
     id 4 
     name lfoot
     direction 0.158999 -0.435969 0.885805   
     length 2.70564   
     axis -90 -1.13533e-015 20   XYZ
    dof rx rz
    limits (-45.0 90.0)
           (-70.0 20.0)
  end
  begin
     id 5 
     name ltoes
     direction -0.00592919 0.00964381 0.999936   
     length 1.29929   
     axis -90 -1.13533e-015 20   XYZ
    dof rx
    limits (-90.0 20.0)
  end
  begin
     id 6 
     name rhipjoint
     direction -0.414359 -0.700339 0.581234   
     length 2.17212  
     axis 0 -0 0  XYZ 
  end
  begin
     id 7 
     name rfemur
     direction -0.34202 -0.939693 0   
     length 7.17659   
     axis 0 -0 -20   XYZ
    dof rx ry rz
    limits (-160.0 20.0)
           (-70.0 70.0)
           (-70.0 60.0)
  end
  begin
     id 8 
     name rtibia
     direction -0.34202 -0.939693 0   
     length 6.36669   
     axis 0 -0 -20   XYZ
    dof rx
    limits (-10.0 170.0)
 end
 begin
     id 9 
     name rfoot
     direction -0.137064 -0.37658 0.916188   
     length 2.22351  
     axis -90 1.13533e-015 -20   XYZ
    dof rx rz
    limits (-45.0 90.0)
           (-20.0 70.0)
  end
  begin
     id 10 
     name rtoes
     direction -0.000784077 -0.00289101 0.999996   
     length 1.09522   
     axis -90 1.13533e-015 -20   XYZ
    dof rx
    limits (-90.0 20.0)
  end
  begin
     id 11 
     name lowerback
     direction -0.0176242 0.984912 -0.172157   
     length 1.65301   
     axis 0 -0 0   XYZ
    dof rx ry rz
    limits (-20.0 45.0)
           (-30.0 30.0)
           (-30.0 30.0)
  end
  begin
     id 12 
     name upperback
     direction -0.00218128 0.998776 -0.0494072   
     length 1.67776   
     axis 0 -0 0   XYZ
    dof rx ry rz
    limits (-20.0 45.0)
           (-30.0 30.0)
           (-30.0 30.0)
  end
  begin
     id 13 
     name thorax
     direction 0.00544186 0.999658 0.0255711   
     length 1.72293   
     axis 0 -0 0   XYZ
    dof rx ry rz
    limits (-20.0 45.0)
           (-30.0 30.0)
           (-30.0 30.0)
  end
  begin
     id 14 
     name lowerneck
     direction -0.105325 0.983841 0.144785   
     length 2.14226   
     axis 0 -0 0   XYZ
    dof rx ry rz
    limits (-20.0 45.0)
           (-30.0 30.0)
           (-30.0 30.0)
  end
  begin
     id 15 
     name upperneck
     direction 0.0547957 0.988053 -0.144041   
     length 2.17508   
     axis 0 -0 0   XYZ
    dof rx ry rz
    limits (-20.0 45.0)
           (-30.0 30.0)
           (-30.0 30.0)
  end
  begin
     id 16
     name head
     direction 0.0247488 0.997534 -0.0656813  
     length 2.20048  
     axis 0 -0 0   XYZ
    dof rx ry rz
    limits (-20.0 45.0)
           (-30.0 30.0)
           (-30.0 30.0)
  end
  begin
     id 17 
     name lclavicle
     direction 0.820559 0.567247 -0.0701026  
     length 4.09615  
     axis 0 -0 0   XYZ
    dof ry rz
    limits (-20.0 10.0)
           (0.0 20.0)
  end
  begin
     id 18 
     name lhumerus
     direction 0.999977 -0.0067566 -9.96392e-005   
     length 4.59333   
     axis -180 -30 -90   XYZ
    dof rx ry rz
    limits (-60.0 90.0)
           (-90.0 90.0)
           (-90.0 90.0)
  end
  begin
     id 19
     name lradius
     direction 1 -4.48982e-011 -2.53425e-027   
     length 2.81151   
     axis -180 -30 -90   XYZ
    dof rx
    limits (-10.0 170.0)
  end
  begin
     id 20
     name lwrist
     direction 1 -4.48939e-011 -7.39254e-028   
     length 1.40576   
     axis 2.56395e-016 90 90   XYZ
    dof ry
    limits (-180.0 0.0)
 end
  begin
     id 21 
     name lhand
     direction 1 -4.48939e-011 -1.47851e-027   
     length 0.895651   
     axis 9.43423e-016 90 90   XYZ
    dof rx rz
    limits (-90.0 90.0)
           (-45.0 45.0)
  end
  begin
     id 22 
     name lfingers
     direction 1 -4.48978e-011 -2.95702e-027   
     length 0.722097   
     axis 1.88685e-015 90 90   XYZ
    dof rx
    limits (0.0 90.0)
  end
  begin
     id 23
     name lthumb
     direction 0.707107 -6.34931e-011 0.707107   
     length 1.03679   
     axis -90 45 -9.86935e-015   XYZ
    dof rx rz
    limits (-45.0 45.0)
           (-45.0 45.0)
  end
  begin
     id 24 
     name rclavicle
     direction -0.831414 0.553102 -0.0531864   
     length 4.24872  
     axis 0 -0 0   XYZ 
    dof ry rz
    limits (-10.0 20.0)
           (-20.0 0.0)
  end
  begin
     id 25 
     name rhumerus
     direction -0.999916 -0.000939607 0.0129331  
     length 4.74834   
     axis -180 30 90   XYZ
    dof rx ry rz
    limits (-90.0 60.0)
           (-90.0 90.0)
           (-90.0 90.0)
  end
  begin
     id 26 
     name rradius
     direction -1 -4.48956e-011 -1.31752e-027   
     length 2.79907   
     axis -180 30 90   XYZ
    dof rx
    limits (-10.0 170.0)
  end
  begin
     id 27 
     name rwrist
     direction -1 -4.4897e-011 -7.39254e-028   
     length 1.39954   
     axis 2.56395e-016 -90 -90   XYZ
    dof ry
    limits (-180.0 0.0)
  end
  begin
     id 28
     name rhand
     direction -0.999997 -0.00250697 0.000800838   
     length 0.953304   
     axis 9.43423e-016 -90 -90   XYZ
    dof rx rz
    limits (-90.0 90.0)
           (-45.0 45.0)
  end
  begin
     id 29
     name rfingers
     direction -1 -4.48954e-011 -2.95702e-027   
     length 0.763342   
     axis 1.88685e-015 -90 -90   XYZ
    dof rx
    limits (0.0 90.0)
  end
  begin
     id 30
     name rthumb
     direction -0.709701 -0.00217037 0.7045   
     length 1.10115   
     axis -90 -45 9.86935e-015   XYZ
    dof rx rz
    limits (-45.0 45.0)
           (-45.0 45.0)
  end
:hierarchy
  begin
    root lhipjoint rhipjoint lowerback
    lhipjoint lfemur
    lfemur ltibia
    ltibia lfoot
    lfoot ltoes
    rhipjoint rfemur
    rfemur rtibia
    rtibia rfoot
    rfoot rtoes
    lowerback upperback
    upperback thorax
    thorax lowerneck lclavicle rclavicle
    lowerneck upperneck
    upperneck head
    lclavicle lhumerus
    lhumerus lradius
    lradius lwrist
    lwrist lhand lthumb
    lhand lfingers
    rclavicle rhumerus
    rhumerus rradius
    rradius rwrist
    rwrist rhand rthumb
    rhand rfingers
  end

#!OML:ASF G:\ViconDB\ViconDB\414\test\team2\shane.ASF
:FULLY-SPECIFIED
:DEGREES
117
root 8.27957 16.3162 30.0421 -15.8092 1.73218 -5.62168
lowerback 11.9332 2.04722 3.778
upperback 3.65188 3.21941 1.48873
thorax -2.73591 1.60122 -1.02418
lowerneck -18.3004 -8.69714 -7.21237
upperneck 21.0085 -13.3762 12.5954
head 11.249 -5.25559 3.63422
rclavicle 1.11319e-014 1.55052e-014
rhumerus -18.8323 57.2469 -26.3703
rradius 106.254
rwrist -85.3283
rhand 15.3179 -81.6278
rfingers 7.12502
rthumb 40.1508 106.808
lclavicle -4.79145e-014 -5.56597e-014
lhumerus -69.4062 -29.071 100.295
lradius 68.2468
lwrist -16.4714
lhand -53.2271 7.46584
lfingers 7.12502
lthumb -25.6833 35.7532
rfemur 18.0216 -7.75629 14.8122
rtibia 66.0519
rfoot -0.938721 -9.39251
rtoes -5.70663
lfemur -12.993 9.81416 -12.0662
ltibia 38.9305
lfoot -11.6795 -22.6239
ltoes 0.361753
118
root 8.29655 16.1808 30.4683 -16.086 1.74493 -5.38347
lowerback 12.3449 1.80144 3.29696
upperback 3.7372 2.84869 1.38851
thorax -2.90642 1.41474 -0.823226
lowerneck -18.1827 -8.3158 -6.99388
upperneck 20.529 -12.7654 12.36
head 10.9416 -5.01325 3.61778
rclavicle -2.1593e-014 6.75868e-015
rhumerus -19.8149 59.065 -27.0957
rradius 105.284
rwrist -85.2825
rhand 15.3179 -81.6278
rfingers 7.12502
rthumb 40.1508 106.808
lclavicle -4.79145e-014 -5.56597e-014
lhumerus -69.4062 -29.071 100.295
lradius 68.2468
lwrist -16.4714
lhand -53.2271 7.46584
lfingers 7.12502
lthumb -25.6833 35.7532
rfemur 15.8773 -7.8503 14.2835
rtibia 69.2397
rfoot -2.40712 -7.86529
rtoes -6.38622
lfemur -11.7968 8.43798 -12.0999
ltibia 41.0627
lfoot -15.7676 -21.2286
ltoes 1.72495
119
root 8.31843 16.0603 30.8891 -16.4139 1.75182 -5.39883
lowerback 12.9585 1.48612 3.15698
upperback 3.77965 2.43756 1.36877
thorax -3.21601 1.20544 -0.726148
lowerneck -17.9235 -7.91924 -6.98432
upperneck 20.1081 -12.108 12.1832
head 10.6482 -4.76096 3.66697
rclavicle 1.48592e-014 5.1684e-015
rhumerus -20.9251 60.8672 -27.8893
rradius 104.222
rwrist -84.7954
rhand 15.3179 -81.6278
rfingers 7.12502
rthumb 40.1508 106.808
lclavicle -4.79145e-014 -5.56597e-014
lhumerus -69.4062 -29.071 100.295
lradius 68.2468
lwrist -16.4714
lhand -53.2271 7.46584
lfingers 7.12502
lthumb -25.6833 35.7532
rfemur 13.722 -7.9183 14.1535
rtibia 72.0233
rfoot -3.92581 -6.61685
rtoes -6.61409
lfemur -10.8803 7.97912 -11.9617
ltibia 43.3274
lfoot -18.5962 -20.3923
ltoes 2.33111
120
root 8.33977 15.9826 31.3091 -16.5832 1.89828 -5.04019
lowerback 13.138 1.23447 2.64183
upperback 3.94398 2.03969 1.35951
thorax -3.17334 1.01049 -0.388405
lowerneck -17.8662 -7.5411 -7.03825
upperneck 19.7774 -11.3958 11.7382
head 10.4072 -4.50375 3.63205
rclavicle -6.67171e-015 1.78906e-014
rhumerus -20.9251 60.8672 -27.8893
rradius 104.222
rwrist -84.7954
rhand 15.3179 -81.6278
rfingers 7.12502
rthumb 40.1508 106.808
lclavicle -4.79145e-014 -5.56597e-014
lhumerus -69.4062 -29.071 100.295
lradius 68.2468
lwrist -16.4714
lhand -53.2271 7.46584
lfingers 7.12502
lthumb -25.6833 35.7532
rfemur 11.4127 -8.03954 13.705
rtibia 74.3625
rfoot -5.43103 -5.82182
rtoes -7.54654
lfemur -10.2296 8.03566 -12.391
ltibia 45.6413
lfoot -21.4055 -19.3796
ltoes 1.62487
121
root 8.35129 15.9051 31.7163 -16.7178 2.22917 -4.88936
lowerback 13.6953 0.791642 2.40911
upperback 3.92025 1.4328 1.13379
thorax -3.51509 0.7054 -0.409691
lowerneck -17.7855 -7.089 -6.92814
upperneck 19.594 -10.7564 11.6993
head 10.2475 -4.2167 3.70439
rclavicle 5.86415e-015 -9.14409e-015
rhumerus -20.9251 60.8672 -27.8893
rradius 104.222
rwrist -84.7954
rhand 15.3179 -81.6278
rfingers 7.12502
rthumb 40.1508 106.808
lclavicle -4.79145e-014 -5.56597e-014
lhumerus -69.4062 -29.071 100.295
lradius 68.2468
lwrist -16.4714
lhand -53.2271 7.46584
lfingers 7.12502
lthumb -25.6833 35.7532
rfemur 9.00242 -8.52551 13.5366
rtibia 76.4189
rfoot -7.01256 -5.39827
rtoes -8.7146
lfemur -9.52021 7.77471 -12.511
ltibia 47.6931
lfoot -23.723 -18.8172
ltoes 1.81098
122
root 8.35737 15.8321 32.1137 -16.6544 2.70664 -5.14037
lowerback 13.6471 0.340157 2.2794
upperback 4.10705 0.820752 1.33685
thorax -3.31203 0.404977 -0.0231623
lowerneck -18.0702 -6.81907 -7.56831
upperneck 19.4547 -10.1924 11.8354
head 10.2332 -3.98474 3.94279
rclavicle 1.60891e-014 1.8487e-014
rhumerus -20.9251 60.8672 -27.8893
rradius 104.222
rwrist -84.7954
rhand 15.3179 -81.6278
rfingers 7.12502
rthumb 40.1508 106.808
lclavicle -4.79145e-014 -5.56597e-014
lhumerus -69.4062 -29.071 100.295
lradius 68.2468
lwrist -16.4714
lhand -53.2271 7.46584
lfingers 7.12502
lthumb -25.6833 35.7532
rfemur 6.25304 -9.13999 14.0145
rtibia 78.1331
rfoot -8.42452 -5.47408
rtoes -9.27051
lfemur -8.89961 7.39409 -12.2061
ltibia 49.3317
lfoot -25.9948 -18.446
ltoes 1.62926
123
root 8.36662 15.7807 32.501 -16.5808 3.28526 -5.31399
lowerback 13.473 -0.0554825 2.32826
upperback 4.1909 0.297628 1.37081
thorax -3.13781 0.147357 0.0695097
lowerneck -17.8776 -6.61948 -8.23782
upperneck 19.2198 -9.78962 12.1878
head 10.1243 -3.8252 4.24633
rclavicle 1.60891e-014 1.8487e-014
rhumerus -20.9251 60.8672 -27.8893
rradius 104.222
rwrist -84.7954
rhand 15.3179 -81.6278
rfingers 7.12502
rthumb 40.1508 106.808
lclavicle -4.79145e-014 -5.56597e-014
lhumerus -69.4062 -29.071 100.295
lradius 68.2468
lwrist -16.4714
lhand -53.2271 7.46584
lfingers 7.12502
lthumb -25.6833 35.7532
rfemur 3.36698 -9.78392 14.3862
rtibia 79.4774
rfoot -9.75572 -5.66788
rtoes -7.80007
lfemur -8.06193 6.72781 -12.1807
ltibia 50.3981
lfoot -27.8747 -17.5805
ltoes 1.19603
124
root 8.33589 15.7212 32.8565 -17.4243 1.90428 -4.98802
lowerback 14.5885 0.361728 1.3619
upperback 4.46653 0.752701 1.64458
thorax -3.46127 0.370454 0.822785
lowerneck -17.6912 -6.40637 -8.81468
upperneck 19.1158 -9.3195 12.1704
head 10.0233 -3.66344 4.41306
rclavicle 1.60891e-014 1.8487e-014
rhumerus -20.9251 60.8672 -27.8893
rradius 104.222
rwrist -84.7954
rhand 15.3179 -81.6278
rfingers 7.12502
rthumb 40.1508 106.808
lclavicle -6.76489e-015 -1.21259e-014
lhumerus -52.9156 -36.3506 104.272
lradius 67.6077
lwrist -11.0379
lhand -62.6317 30.8422
lfingers 7.12502
lthumb -34.6534 57.4784
rfemur 1.41992 -8.43947 14.7709
rtibia 80.2495
rfoot -10.9776 -6.09857
rtoes -8.4473
lfemur -5.33601 7.54576 -12.0766
ltibia 50.9398
lfoot -29.741 -15.9906
ltoes 0.524891
125
root 8.3359 15.6879 33.236 -17.8859 2.3404 -5.09967
lowerback 14.5822 0.141761 1.24877
upperback 4.95815 0.440638 1.75497
thorax -2.94119 0.217328 1.05632
lowerneck -18.0408 -6.36743 -9.424
upperneck 19.107 -9.0886 12.2776
head 10.0931 -3.57805 4.58583
rclavicle 1.60891e-014 1.8487e-014
rhumerus -20.9251 60.8672 -27.8893
rradius 104.222
rwrist -84.7954
rhand 15.3179 -81.6278
rfingers 7.12502
rthumb 40.1508 106.808
lclavicle 4.6528e-015 -4.17448e-015
lhumerus -49.8661 -38.5193 103.764
lradius 66.6409
lwrist -11.7858
lhand -61.3835 29.0798
lfingers 7.12502
lthumb -33.4679 55.9801
rfemur -0.508434 -8.96451 15.3219
rtibia 80.508
rfoot -12.1917 -6.52702
rtoes -8.98043
lfemur -3.34403 6.79204 -12.0311
ltibia 51.0847
lfoot -31.4444 -14.6484
ltoes -0.227707
